<?xml version="1.0" encoding="UTF-8" standalone="no"?>
<svg
   xmlns:dc="http://purl.org/dc/elements/1.1/"
   xmlns:cc="http://creativecommons.org/ns#"
   xmlns:rdf="http://www.w3.org/1999/02/22-rdf-syntax-ns#"
   xmlns:svg="http://www.w3.org/2000/svg"
   xmlns="http://www.w3.org/2000/svg"
   xmlns:sodipodi="http://sodipodi.sourceforge.net/DTD/sodipodi-0.dtd"
   xmlns:inkscape="http://www.inkscape.org/namespaces/inkscape"
   id="Assemblee_Nationale"
   version="1.1"
   xml:lang="fr"
   x="0px"
   y="0px"
   width="100%"
   height="100%"
   viewBox="0 0 769.9 769.9"
   preserveAspectRatio="xMidYMid meet"
   inkscape:version="0.48.4 r9939"
   sodipodi:docname="logo-inkscape.svg"
   inkscape:export-filename="/home/toutenrab/Dev/_PRO/Skoli/DerangeonsLaChambre/src/public/apple-touch-icon.png"
   inkscape:export-xdpi="21.040001"
   inkscape:export-ydpi="21.040001">
  <metadata
     id="metadata21">
    <rdf:RDF>
      <cc:Work
         rdf:about="">
        <dc:format>image/svg+xml</dc:format>
        <dc:type
           rdf:resource="http://purl.org/dc/dcmitype/StillImage" />
        <dc:title></dc:title>
      </cc:Work>
    </rdf:RDF>
  </metadata>
  <defs
     id="defs19" />
  <sodipodi:namedview
     pagecolor="#ffffff"
     bordercolor="#666666"
     borderopacity="1"
     objecttolerance="10"
     gridtolerance="10"
     guidetolerance="10"
     inkscape:pageopacity="0"
     inkscape:pageshadow="2"
     inkscape:window-width="1871"
     inkscape:window-height="1056"
     id="namedview17"
     showgrid="false"
     inkscape:snap-to-guides="false"
     inkscape:snap-global="true"
     inkscape:snap-bbox="false"
     inkscape:snap-bbox-edge-midpoints="true"
     inkscape:snap-grids="false"
     inkscape:snap-midpoints="false"
     inkscape:snap-page="true"
     inkscape:snap-object-midpoints="true"
     inkscape:snap-center="true"
     inkscape:zoom="1.1663852"
     inkscape:cx="384.95"
     inkscape:cy="384.95"
     inkscape:window-x="49"
     inkscape:window-y="24"
     inkscape:window-maximized="1"
     inkscape:current-layer="Assemblee_Nationale"
     fit-margin-top="0"
     fit-margin-left="0"
     fit-margin-right="0"
     fit-margin-bottom="0" />
  <g
     id="Dessin"
     transform="matrix(0.88751309,0,0,0.90283159,-189.06802,228.13917)"
     style="fill:#241c1c">
    <g
       id="g3003"
       transform="matrix(0.89154563,0,0,0.89154563,70.142893,-121.24877)">
      <path
         inkscape:connector-curvature="0"
         d="m 558.901,303.874 c 0.611,-16.97 -0.938,-50.974 0.075,-67.926 0.185,-3.101 -0.243,-9.849 1.644,-12.317 0.967,-1.265 4.33,-2.873 5.87,-2.47 6.033,1.578 12.719,14.023 15.309,19.696 4.545,9.955 5.674,28.602 5.452,43.434 -0.222,14.774 1.448,33.262 1.498,44.357 0.036,8.115 -1.323,24.31 -1.596,32.42 -0.695,20.722 -0.991,55.28 -1.605,82.917 -0.045,2.022 -0.021,5.208 -1.98,6.024 -2.48,1.034 -5.758,-1.698 -7.099,-3.62 -6.344,-9.093 -10.246,-19.329 -12.572,-30.185 -6.709,-31.311 -7.892,-71.123 -6.578,-94.858 0.241,-4.379 1.424,-13.089 1.582,-17.472 z m -64.849,-61.74 c 0.204,-3.942 1.301,-7.858 2.185,-11.741 0.938,-4.119 4.229,-4.436 7.493,-3.835 9.396,1.729 13.858,8.699 16.557,16.882 3.898,11.818 5.15,24.09 4.282,36.475 -2.29,32.707 -4.881,65.393 -7.157,98.101 -1.106,15.889 0.174,35.762 1.339,47.613 0.145,1.478 0.482,4.026 0.112,5.939 -1.406,7.284 -8.085,9.722 -13.761,5.038 -4.379,-3.614 -6.638,-8.353 -8.067,-13.933 -4.523,-17.672 -6.952,-35.565 -7.006,-53.785 -0.054,-18.137 -0.412,-40.814 -0.012,-54.411 0.535,-18.106 2.788,-48.24 4.035,-72.343 z m -45.059,112.131 c -0.788,29.456 2.397,56.707 -1.929,78.38 -0.294,1.474 -0.811,5.021 -2.2,5.595 -1.771,0.732 -5.66,-1.722 -7.022,-3.07 -7.922,-7.84 -12.258,-27.259 -14.743,-42.073 -3.307,-19.719 -4.811,-39.554 -4.117,-59.635 1.126,-32.611 1.41,-65.25 2.134,-97.875 0.081,-3.644 0.532,-7.305 1.137,-10.904 0.533,-3.175 2.905,-4.189 5.607,-2.876 6.4,3.11 12.087,9.885 14.025,14.551 3.198,7.699 5.873,24.383 6.612,32.687 1.106,12.425 1.966,49.859 1.966,49.859 0,0 -1.243,26.896 -1.47,35.361 z M 377.306,341.19 c -0.887,31.628 -1.831,64.435 -2.694,97.244 -0.108,4.106 -1.645,7.151 -5.49,8.653 -4.07,1.59 -6.588,-1.052 -8.939,-3.767 -5.396,-6.233 -6.554,-14.086 -8.073,-21.739 -6.246,-31.476 -8.579,-63.358 -9.095,-95.364 -0.46,-28.485 -1.612,-64.15 -0.18,-85.469 0.475,-7.073 -0.252,-22.206 3.656,-28.12 0.805,-1.219 3.589,-3.169 5.035,-2.966 7.398,1.041 17.427,14.901 20.568,21.68 7.865,16.98 5.407,49.641 5.226,74.668 -0.083,11.33 -0.014,22.662 -0.014,35.18 z M 649.07965,61.561203 c 0,0 -330.72694,82.944547 -337.97794,84.782547 -4.979,1.262 -5.144,4.3565 -1,7.3125 4.321,3.084 8.3905,5.91925 12.6875,8.90625 2.615,1.818 3.65625,4.924 3.65625,6.875 l 0,29.1875 322.63375,0 c 4.4e-4,-137.063797 0.037,0 4.4e-4,-137.063797 z M 320.5625,462.875 l -107.53125,44.90625 0,31.71875 434.63375,0 c 0,-76.625 0,0 0,-76.625 z"
         style="fill:#051440;fill-opacity:1"
         id="Colonne_G_4" />
      <path
         inkscape:connector-curvature="0"
         d="m 953.481,243.779 c -1.177,13.915 -2.391,27.855 -2.692,41.802 -0.536,24.79 -0.393,49.595 -0.494,74.395 -0.083,20.141 0.937,45.367 -0.292,60.422 -0.334,4.094 -1.721,10.817 -2.868,16.177 -0.749,3.498 -4.452,6.471 -6.698,6.137 -2.23,-0.331 -4.839,-4.18 -5.273,-7.314 -2.809,-20.272 -5.984,-40.518 -7.96,-60.876 -3.278,-33.787 -7.309,-76.057 -8.464,-101.492 -0.192,-4.229 -0.162,-11.332 0.471,-16.925 1.549,-13.691 2.009,-31.201 5.292,-41.001 0.85,-2.539 4.428,-7.914 9.66,-4.623 12.274,7.719 20.646,17.6 19.318,33.298 z M 850.895,222.965 c 8.223,-6.249 17.448,9.593 19.943,15.372 1.28,2.964 3.45,9.091 4.042,12.264 5.091,27.287 5.392,83.134 5.608,110.891 0.078,9.99 -0.932,26.621 -1.391,39.936 -0.303,8.805 -0.368,17.642 -1.296,26.385 -0.277,2.609 -2.969,5.07 -4.891,7.31 -0.403,0.469 -2.728,-0.145 -3.462,-0.629 -0.511,-0.337 -1.151,-1.238 -1.415,-1.996 -5.064,-14.567 -12.176,-28.717 -12.876,-44.351 -2.145,-47.915 0.596,-108.318 -5.377,-143.791 -0.888,-5.28 -5.144,-16.635 1.115,-21.391 z m -43.248,97.238 c 0.442,27.89 -4.101,57.184 -6.036,86.557 -0.456,6.929 -0.012,13.914 -0.387,20.852 -0.152,2.813 -0.75,5.991 -2.263,8.257 -2.905,4.353 -6.241,3.715 -9.094,-0.798 -8.393,-13.276 -9.892,-28.412 -11.825,-43.399 -6.86,-53.202 -4.599,-106.697 -4.947,-160.106 -0.01,-1.487 0.093,-3.01 0.408,-4.459 1.333,-6.123 7.857,-5.524 10.174,-4.064 7.771,4.898 15.688,19.605 17.24,32.447 2.537,20.967 6.368,41.897 6.73,64.713 z M 700.697,214.757 c 8.091,-5.818 18.504,8.156 22.212,13.492 4.019,5.784 7.054,17.372 9.006,26.694 5.806,27.724 7.094,55.851 6.478,83.943 -0.582,26.558 -3.388,53.065 -5.053,79.604 -0.29,4.616 0.011,9.304 0.439,13.922 0.44,4.756 -1.593,8.385 -6.728,9.959 -4.622,1.416 -5.834,-2.701 -6.886,-5.509 -7.313,-19.51 -16.316,-38.39 -16.42,-60.115 -0.127,-26.437 -1.738,-52.867 -2.75,-79.299 -0.809,-21.122 -1.888,-42.237 -2.397,-63.367 -0.146,-6.061 -3.755,-15.114 2.099,-19.324 z m -40.09551,385.31154 c 0,-137.064 0,-137.064 0,-137.064 l 319.4542,0 0,29.1875 c 0,1.951 1.04125,5.057 3.65625,6.875 4.297,2.987 8.3675,5.82325 12.6875,8.90625 4.14296,2.957 3.94776,6.0505 -1.03125,7.3125 z m -1.34421,-401.314 c 0,-76.625 0,0 0,-76.625 l 421.25922,0 0,31.71875 -107.53122,44.90625 z"
         style="fill:#ec1920;fill-opacity:1"
         id="Colonne_G_9" />
    </g>
  </g>
</svg>
