<svg xmlns="http://www.w3.org/2000/svg" xmlns:xlink="http://www.w3.org/1999/xlink" version="1.0" x="0px" y="0px" viewBox="0 0 100 125" overflow="" enable-background="new 0 0 100 100" xml:space="preserve"><path d="M70.304,11.068c8.665,1.426,16.91,4.081,24.558,7.791c0.453,0.207,0.768,0.667,0.768,1.197 c0,0.07-0.007,0.141-0.017,0.207l-1.328,10.006c-0.088,0.646-0.642,1.151-1.31,1.151c-0.227,0-0.438-0.059-0.624-0.159 c-6.547-3.512-13.667-6.114-21.17-7.642L70.304,11.068z"/><path d="M83.712,49.036c-1.435,0-2.731,0.617-3.628,1.599L71.01,61.126c-0.901,1.034-2.222,1.687-3.707,1.687 c-2.711,0-4.913-2.2-4.913-4.911L60.328,4.916c0-2.721-2.203-4.924-4.923-4.924c-2.556,0-4.653,1.94-4.902,4.431l-2.859,38.285 l-21.611,9.564c-3.459,1.502-5.884,4.952-5.884,8.968c0,0.441,0.029,0.883,0.087,1.312l3.872,28.993 c0.641,4.771,4.731,8.455,9.684,8.455h23.742c3.715,0,6.941-2.069,8.597-5.114l21.853-38.491c0.41-0.717,0.647-1.555,0.647-2.444 C88.63,51.234,86.43,49.036,83.712,49.036z"/><path d="M3.758,27.519v-0.005L21.633,9.243v0.005c0.242-0.238,0.57-0.387,0.936-0.387 c0.571,0,1.061,0.366,1.246,0.873l1.757,5.318c4.519-1.667,9.158-2.905,13.936-3.761l-0.475,12.517 c-3.24,0.702-6.401,1.599-9.48,2.686l1.717,5.023c0.043,0.127,0.065,0.264,0.065,0.407c0,0.729-0.593,1.319-1.321,1.319 c-0.053,0-0.114-0.002-0.168-0.01L4.53,29.699c-0.63,0-1.155-0.566-1.155-1.248C3.375,28.087,3.524,27.759,3.758,27.519z"/></svg>
